<?xml version="1.0" standalone="no"?>
<!DOCTYPE svg PUBLIC "-//W3C//DTD SVG 20010904//EN"
 "http://www.w3.org/TR/2001/REC-SVG-20010904/DTD/svg10.dtd">
<svg version="1.0" xmlns="http://www.w3.org/2000/svg"
 width="1102.000000pt" height="712.000000pt" viewBox="0 0 1102.000000 712.000000"
 preserveAspectRatio="xMidYMid meet">
<metadata>
Created by potrace 1.15, written by Peter Selinger 2001-2017
</metadata>
<g transform="translate(0.000000,712.000000) scale(0.100000,-0.100000)"
fill="#000000" stroke="none">
<path d="M0 3560 l0 -3560 5510 0 5510 0 0 3560 0 3560 -5510 0 -5510 0 0
-3560z m5714 2270 c441 -116 828 -627 1015 -1340 22 -84 71 -314 71 -333 0 -6
-24 32 -54 86 -286 518 -841 795 -1425 712 -427 -61 -833 -347 -1026 -722 -29
-56 -31 -45 -9 57 152 737 492 1289 916 1488 157 74 353 93 512 52z m41 -975
c50 -9 111 -23 138 -31 l47 -16 0 -509 0 -509 -160 0 -160 0 0 544 0 543 23
-3 c12 -2 63 -11 112 -19z m702 -377 c120 -122 226 -288 283 -441 27 -73 60
-197 60 -224 l0 -23 -212 2 -213 3 -2 378 c-1 207 1 377 5 377 4 0 40 -33 79
-72z m-517 -1621 l0 -512 -62 -18 c-68 -19 -212 -47 -240 -47 -17 0 -18 33
-18 545 l0 545 160 0 160 0 0 -513z m857 466 c-14 -119 -103 -330 -201 -478
-53 -78 -200 -245 -217 -245 -4 0 -8 173 -9 385 l0 385 216 0 217 0 -6 -47z
m-16 -443 c-160 -832 -577 -1445 -1070 -1571 -94 -24 -254 -25 -354 -3 -298
67 -596 348 -809 764 -117 229 -218 530 -266 800 -6 31 -13 69 -17 85 -4 21 3
12 27 -30 97 -174 273 -376 418 -478 208 -146 431 -229 689 -258 285 -32 600
45 870 212 190 116 402 349 497 546 16 32 30 55 32 51 2 -4 -6 -57 -17 -118z"/>
<path d="M5417 5656 c-75 -31 -123 -68 -158 -124 -41 -64 -52 -105 -47 -175 7
-111 80 -212 186 -260 72 -32 200 -35 275 -7 32 12 70 32 84 45 24 19 25 24
12 36 -43 41 -46 42 -91 15 -117 -68 -280 -26 -345 89 -35 62 -32 148 7 207
59 88 164 131 266 109 29 -7 65 -22 79 -33 l27 -21 30 31 c18 18 27 35 23 42
-4 7 -35 25 -69 41 -82 39 -192 41 -279 5z"/>
<path d="M5041 5537 l-54 -32 -177 -360 c-98 -198 -176 -361 -175 -363 2 -2
33 16 70 40 62 40 69 49 115 139 l49 96 126 47 c70 27 128 46 129 44 2 -1 11
-29 20 -60 9 -32 20 -58 24 -58 22 0 82 22 82 30 0 10 -25 107 -96 367 -22 79
-43 143 -49 142 -5 0 -34 -15 -64 -32z m38 -193 c13 -52 21 -97 18 -100 -11
-11 -178 -72 -175 -64 11 32 124 259 129 259 3 1 15 -42 28 -95z"/>
<path d="M5902 5463 c-17 -60 -50 -174 -73 -256 -23 -81 -39 -150 -36 -153 3
-3 20 -7 38 -7 l33 -2 41 132 c22 72 42 134 45 137 3 3 16 -45 29 -107 48
-227 46 -222 67 -225 13 -2 23 6 31 25 57 142 83 195 87 183 3 -8 26 -78 51
-155 26 -77 51 -148 56 -157 10 -18 98 -83 104 -76 2 2 -8 41 -21 88 -14 47
-50 171 -80 275 -48 169 -58 193 -86 217 -18 16 -35 25 -39 20 -5 -4 -23 -47
-42 -95 l-33 -89 -22 109 c-45 216 -43 209 -72 227 -16 9 -32 16 -38 16 -5 0
-23 -48 -40 -107z"/>
<path d="M4981 2166 c-18 -21 -70 -30 -104 -17 -25 10 -29 8 -37 -15 -6 -14
-10 -27 -10 -28 0 -2 21 -11 48 -21 26 -10 48 -19 50 -20 1 -1 -18 -60 -43
-130 -25 -71 -45 -132 -45 -136 0 -13 72 -41 81 -32 4 5 14 29 23 55 8 26 39
111 67 189 28 78 47 144 43 149 -19 18 -60 21 -73 6z"/>
<path d="M5975 2169 c-88 -28 -127 -116 -91 -203 21 -51 60 -76 120 -76 51 0
116 28 116 50 0 5 5 10 10 10 19 0 11 -89 -10 -110 -22 -22 -60 -26 -78 -8
-14 14 -92 -9 -92 -28 0 -7 12 -22 28 -34 23 -19 37 -21 89 -18 75 5 108 26
141 89 19 35 22 53 17 92 -9 75 -44 157 -85 200 -31 34 -43 40 -86 43 -27 2
-62 -1 -79 -7z m95 -79 c47 -47 33 -115 -27 -126 -47 -9 -83 24 -83 77 0 62
67 92 110 49z"/>
<path d="M5184 2100 c-60 -24 -84 -113 -42 -157 17 -19 18 -23 6 -23 -9 0 -28
-14 -42 -31 -31 -36 -36 -110 -10 -147 41 -59 177 -83 238 -43 38 26 66 70 66
106 0 28 -22 72 -43 86 -4 3 5 20 22 37 80 79 3 183 -134 181 -22 0 -50 -4
-61 -9z"/>
<path d="M5563 2080 c-78 -35 -106 -127 -62 -200 28 -46 46 -58 96 -66 32 -5
53 -1 83 14 l40 19 0 -32 c0 -65 -75 -113 -110 -70 -16 19 -100 21 -100 2 0
-41 71 -87 134 -87 39 0 103 32 125 62 40 56 50 132 30 230 -26 128 -122 180
-236 128z m116 -67 c11 -10 24 -32 27 -50 5 -26 1 -37 -19 -57 -60 -60 -132
-6 -111 81 11 41 67 55 103 26z"/>
</g>
</svg>
